<svg width="123" height="31" viewBox="0 0 123 31" fill="none" xmlns="http://www.w3.org/2000/svg">
<path d="M8.27281 0.239523C8.1664 0.452329 0.651716 17.6231 0.172904 18.727L0 19.1659H3.29848H6.61026L7.24868 17.5034L7.8871 15.8408H11.5048H15.1225L15.7609 17.5034L16.3993 19.1659H19.7643H23.1293L22.2116 17.0644C21.7061 15.9206 19.8308 11.6246 18.0352 7.5281L14.7767 0.0799195L11.5846 0.0400185C8.64521 0.0134178 8.37921 0.0267181 8.27281 0.239523ZM12.4225 8.83154C12.9013 10.0685 13.3003 11.1059 13.3003 11.1325C13.3003 11.1591 12.489 11.1857 11.5048 11.1857C10.5206 11.1857 9.70924 11.1591 9.70924 11.1325C9.70924 11.1059 9.98855 10.3744 10.3211 9.49655C10.6536 8.63203 11.0526 7.60791 11.1989 7.2222C11.3452 6.83649 11.4782 6.53058 11.5048 6.55718C11.5314 6.58378 11.9437 7.60791 12.4225 8.83154Z" fill="black"/>
<path d="M24.6056 9.58966V19.1659H27.7312H30.8567L30.8833 14.8699L30.9232 10.5872L34.5143 14.8699L38.0921 19.1659H40.7921H43.4921V9.58966V0.0134178H40.3H37.1079L37.0813 4.28282L37.0414 8.55223L33.4769 4.28282L29.8991 0.0134178H27.2524H24.6056V9.58966Z" fill="black"/>
<path d="M47.0832 9.58966V19.1659H50.2753H53.4673V9.58966V0.0134178H50.2753H47.0832V9.58966Z" fill="black"/>
<path d="M57.0584 9.57636V19.1659H60.2505H63.4426V16.7718V14.3778H64.347L65.2381 14.3911L66.8342 16.7718L68.4302 19.1526L71.9282 19.1659H75.4262L74.5749 17.929C71.875 14.0187 71.3829 13.2605 71.5292 13.2073C71.8883 13.0876 73.1119 12.0768 73.5375 11.5448C74.7479 10.0419 75.24 7.88721 74.841 5.86556C74.5483 4.34933 74.0695 3.4316 73.0321 2.40748C72.0479 1.42325 71.0238 0.83804 69.5607 0.399129C68.6031 0.106521 68.3238 0.0932211 62.8175 0.0400198L57.0584 0.000118822V9.57636ZM67.2598 5.33355C68.0445 5.67936 68.3637 6.25127 68.3637 7.2621C68.3637 8.20642 68.0578 8.79164 67.4061 9.15075C67.0603 9.32365 66.5681 9.39015 65.2115 9.43005L63.4426 9.48325V7.2754V5.06754H65.0785C66.3952 5.06754 66.8076 5.12075 67.2598 5.33355Z" fill="black"/>
<path d="M77.7138 6.2246C77.767 13.1142 77.7936 13.2871 78.6715 15.1358C79.7222 17.3171 81.7438 18.7934 84.4571 19.3786C85.6541 19.6313 88.4206 19.6313 89.724 19.3653C92.2511 18.8466 94.3659 17.3038 95.3634 15.2555C96.3476 13.2472 96.3343 13.3137 96.4008 6.29111L96.4407 0.013349H93.2486H90.0432V5.51969C90.0432 8.68516 89.99 11.3186 89.9102 11.7309C89.5644 13.5132 88.6999 14.3112 87.1172 14.3112C85.7871 14.2979 84.9625 13.726 84.497 12.5157C84.2975 11.9836 84.2709 11.1989 84.2177 5.9586L84.1778 0.013349H80.9192H77.6473L77.7138 6.2246Z" fill="black"/>
<path d="M99.7525 9.58966V19.1659H102.679H105.605L105.631 15.0428L105.671 10.9197L107.679 14.1384L109.675 17.3703H111.177H112.667L114.609 14.1118C115.66 12.3162 116.591 10.8 116.657 10.7335C116.724 10.6537 116.777 12.3029 116.777 14.8832V19.1659H119.796H122.802L122.722 13.2738C122.669 10.0419 122.629 5.73256 122.629 3.69761V0.0134178L119.942 0.0400185L117.256 0.0799195L114.316 5.02764C112.694 7.75421 111.337 10.0153 111.297 10.0552C111.257 10.0951 109.834 7.84731 108.145 5.06754L105.046 0.0134178H102.399H99.7525V9.58966Z" fill="black"/>
<path d="M57.2712 24.1401C56.5397 24.4194 55.8614 25.0046 55.5023 25.683C55.2629 26.1352 55.1964 26.4677 55.1964 27.2391C55.1964 28.3563 55.4358 28.9415 56.154 29.6331C56.7924 30.245 57.4308 30.4711 58.5613 30.4711C59.3461 30.4711 59.6653 30.4046 60.2372 30.1253C62.5514 28.9681 62.5115 25.5233 60.184 24.3263C59.4924 23.9672 57.9894 23.8741 57.2712 24.1401ZM59.0667 25.1509C59.9712 25.4036 60.7559 26.614 60.583 27.5317C60.317 29.0346 58.7209 29.8726 57.5904 29.1011C56.6594 28.476 56.3136 27.5982 56.6062 26.6273C56.8057 25.9224 57.1116 25.5765 57.7899 25.2706C58.415 24.978 58.4416 24.978 59.0667 25.1509Z" fill="black"/>
<path d="M79.7355 24.1933C79.004 24.5391 78.738 24.978 78.738 25.8559C78.738 26.9864 79.1636 27.3588 81.0256 27.8775C81.4911 27.9972 81.8635 28.1967 81.9965 28.3696C82.2493 28.7553 82.2493 28.8218 81.93 29.141C81.4645 29.6065 80.5867 29.4735 79.4296 28.742C79.1503 28.5558 79.1104 28.5691 78.8045 28.9415C78.4055 29.4336 78.3922 29.5666 78.7779 29.7928C79.6158 30.3381 80.0813 30.4711 81.0655 30.4711C82.7946 30.4711 83.6458 29.7396 83.4862 28.3829C83.3931 27.4785 82.768 26.9731 81.3315 26.6273C80.3872 26.3879 80.0414 26.1485 80.0946 25.7096C80.1212 25.4701 80.2542 25.2972 80.5069 25.1775C80.9059 24.978 81.3448 25.0445 82.3025 25.4435C82.7148 25.6031 82.7547 25.5898 82.9941 25.2839C83.3665 24.8051 83.3266 24.6588 82.7015 24.3396C81.8901 23.9273 80.4537 23.8608 79.7355 24.1933Z" fill="black"/>
<path d="M118.32 24.1401C117.588 24.4194 116.91 25.0046 116.551 25.683C116.311 26.1352 116.245 26.4677 116.245 27.2391C116.245 28.3563 116.484 28.9415 117.203 29.6331C117.841 30.245 118.479 30.4711 119.61 30.4711C120.395 30.4711 120.714 30.4046 121.286 30.1253C123.6 28.9681 123.56 25.5233 121.233 24.3263C120.541 23.9672 119.038 23.8741 118.32 24.1401ZM120.115 25.1509C121.02 25.4036 121.804 26.614 121.632 27.5317C121.366 29.0346 119.77 29.8726 118.639 29.1011C117.708 28.476 117.362 27.5982 117.655 26.6273C117.854 25.9224 118.16 25.5765 118.838 25.2706C119.464 24.978 119.49 24.978 120.115 25.1509Z" fill="black"/>
<path d="M2.80636 24.313C2.63346 24.6588 0.132996 30.3381 0.132996 30.4179C0.132996 30.4445 0.452204 30.4711 0.837913 30.4711H1.54283L1.84874 29.7396L2.15465 29.008H3.57778H5.00092L5.30682 29.7396L5.61273 30.4711H6.33095C6.91616 30.4711 7.02257 30.4312 6.95607 30.2583C6.91616 30.1519 6.29105 28.7287 5.58613 27.1061L4.2827 24.1534L3.61768 24.1135C3.07237 24.0869 2.91276 24.1268 2.80636 24.313ZM4.06989 26.9199L4.4822 27.8775L3.61768 27.9174C3.15217 27.944 2.73986 27.9307 2.71326 27.9041C2.64676 27.8376 3.48468 25.949 3.57778 25.949C3.61768 25.949 3.84379 26.3879 4.06989 26.9199Z" fill="black"/>
<path d="M9.70923 27.279V30.4711H10.3077H10.893L10.9329 28.3829L10.9728 26.2948L12.5688 28.343L14.1781 30.4046L14.8698 30.4445L15.5614 30.4844V27.2923V24.0869H14.9629H14.3643L14.3377 26.2416L14.2978 28.4095L12.6353 26.2549L10.9728 24.1002L10.3476 24.0869H9.70923V27.279Z" fill="black"/>
<path d="M19.1525 27.279V30.4711H19.751H20.3496V27.279V24.0869H19.751H19.1525V27.279Z" fill="black"/>
<path d="M23.9406 27.279V30.4711H24.5391H25.1376V28.4095C25.1376 27.279 25.1775 26.348 25.244 26.348C25.2972 26.348 25.7495 27.1593 26.2416 28.1435C27.0928 29.846 27.146 29.9391 27.5317 29.9391C27.9041 29.9391 27.9706 29.846 28.8883 28.0371L29.8593 26.1485L29.8992 28.3031L29.9258 30.4711H30.5243H31.1228V27.279V24.0869H30.2184H29.3272L28.4228 25.8958L27.5184 27.7179L26.6406 25.8958L25.7495 24.0869H24.845H23.9406V27.279Z" fill="black"/>
<path d="M36.4562 24.313C36.2833 24.6588 33.7828 30.3381 33.7828 30.4179C33.7828 30.4445 34.102 30.4711 34.4878 30.4711H35.1927L35.4986 29.7396L35.8045 29.008H37.2276H38.6508L38.9567 29.7396L39.2626 30.4711H39.9808C40.566 30.4711 40.6724 30.4312 40.6059 30.2583C40.566 30.1519 39.9409 28.7287 39.236 27.1061L37.9325 24.1534L37.2675 24.1135C36.7222 24.0869 36.5626 24.1268 36.4562 24.313ZM37.7197 26.9199L38.132 27.8775L37.2675 27.9174C36.802 27.944 36.3897 27.9307 36.3631 27.9041C36.2966 27.8376 37.1345 25.949 37.2276 25.949C37.2675 25.949 37.4936 26.3879 37.7197 26.9199Z" fill="black"/>
<path d="M42.694 24.6189V25.1509H43.6251H44.5561V27.811V30.4711H45.2211H45.8861L45.9127 27.8376L45.9526 25.2174L46.857 25.1775L47.7482 25.1376V24.6189V24.0869H45.2211H42.694V24.6189Z" fill="black"/>
<path d="M50.8073 27.279V30.4711H51.4058H52.0043V27.279V24.0869H51.4058H50.8073V27.279Z" fill="black"/>
<path d="M65.0386 27.279V30.4711H65.6372H66.2224L66.2623 28.3829L66.3022 26.2948L67.8982 28.343L69.5075 30.4046L70.1992 30.4445L70.8908 30.4844V27.2923V24.0869H70.2923H69.6938L69.6672 26.2416L69.6272 28.4095L67.9647 26.2549L66.3022 24.1002L65.6771 24.0869H65.0386V27.279Z" fill="black"/>
<path d="M86.0531 24.6189V25.1509H86.9841H87.9151V27.811V30.4711H88.5802H89.2452L89.2718 27.8376L89.3117 25.2174L90.2161 25.1775L91.1072 25.1376V24.6189V24.0869H88.5802H86.0531V24.6189Z" fill="black"/>
<path d="M93.9003 26.2416C93.9136 29.0746 94.0998 29.6332 95.257 30.2184C95.8555 30.5243 97.2919 30.5642 97.9303 30.2849C98.449 30.0721 99.021 29.4736 99.2072 28.9682C99.287 28.7553 99.3535 27.6115 99.3535 26.3347V24.0869H98.755H98.1564V25.9091C98.1564 28.0371 98.0367 28.5957 97.4781 29.0613C97.0126 29.4603 96.587 29.5002 96.0284 29.2076C95.3368 28.8485 95.2304 28.4494 95.2304 26.1485V24.0869H94.5653H93.9003V26.2416Z" fill="black"/>
<path d="M102.945 27.2657V30.4711H104.448C106.788 30.4711 107.799 30.0588 108.424 28.8218C108.823 28.0637 108.823 26.5076 108.438 25.7495C107.799 24.5125 107.081 24.2066 104.714 24.1135L102.945 24.047V27.2657ZM106.389 25.5233C107.121 25.8825 107.4 26.3613 107.4 27.279C107.4 28.6223 106.642 29.2873 105.099 29.3139L104.208 29.3405L104.168 27.412C104.155 26.3613 104.168 25.4036 104.208 25.3105C104.301 25.0445 105.724 25.1908 106.389 25.5233Z" fill="black"/>
<path d="M111.856 27.279V30.4711H112.454H113.053V27.279V24.0869H112.454H111.856V27.279Z" fill="black"/>
</svg>
