<svg width="22" height="24" viewBox="0 0 22 24" fill="none" xmlns="http://www.w3.org/2000/svg">
<path d="M20 14C21.1 14 22 14.9 22 16V22C22 23.1 21.1 24 20 24H2C0.9 24 0 23.1 0 22V16C0 14.9 0.9 14 2 14C3.1 14 4 14.9 4 16V20H18V16C18 14.9 18.9 14 20 14ZM7.82 8.84C7.04 9.62 5.77 9.63 4.99 8.84C4.21 8.06 4.2 6.8 4.98 6.02L10.99 0L17.01 6.01C17.79 6.79 17.8 8.06 17.02 8.84C16.24 9.62 14.97 9.63 14.19 8.84L12.99 7.65V13.83C12.99 14.3604 12.7793 14.8691 12.4042 15.2442C12.0291 15.6193 11.5204 15.83 10.99 15.83C10.4596 15.83 9.95086 15.6193 9.57579 15.2442C9.20071 14.8691 8.99 14.3604 8.99 13.83V7.66L7.82 8.84Z" fill="#111111"/>
</svg>
