<svg width="24" height="24" viewBox="0 0 24 24" fill="none" xmlns="http://www.w3.org/2000/svg">
<path d="M16.3043 21.5652C17.8892 21.5652 19.1739 20.2805 19.1739 18.6956C19.1739 17.1108 17.8892 15.8261 16.3043 15.8261C14.7195 15.8261 13.4348 17.1108 13.4348 18.6956C13.4348 20.2805 14.7195 21.5652 16.3043 21.5652Z" stroke="#757575" stroke-width="2" stroke-linecap="round" stroke-linejoin="round"/>
<path d="M16.3043 8.17391C17.8892 8.17391 19.1739 6.88917 19.1739 5.30435C19.1739 3.71953 17.8892 2.43478 16.3043 2.43478C14.7195 2.43478 13.4348 3.71953 13.4348 5.30435C13.4348 6.88917 14.7195 8.17391 16.3043 8.17391Z" stroke="#757575" stroke-width="2" stroke-linecap="round" stroke-linejoin="round"/>
<path d="M7.69565 14.8696C9.28047 14.8696 10.5652 13.5848 10.5652 12C10.5652 10.4152 9.28047 9.13043 7.69565 9.13043C6.11084 9.13043 4.82609 10.4152 4.82609 12C4.82609 13.5848 6.11084 14.8696 7.69565 14.8696Z" stroke="#757575" stroke-width="2" stroke-linecap="round" stroke-linejoin="round"/>
<path d="M1 17.6956C0.447715 17.6956 0 18.1434 0 18.6956C0 19.2479 0.447715 19.6956 1 19.6956V17.6956ZM1 19.6956H13.4348V17.6956H1V19.6956Z" fill="#757575"/>
<path d="M1 11C0.447715 11 0 11.4477 0 12C0 12.5523 0.447715 13 1 13V11ZM1 13H4.82609V11H1V13Z" fill="#757575"/>
<path d="M1 4.30435C0.447715 4.30435 0 4.75207 0 5.30435C0 5.85664 0.447715 6.30435 1 6.30435V4.30435ZM1 6.30435H13.4348V4.30435H1V6.30435Z" fill="#757575"/>
<path d="M23 19.6956C23.5523 19.6956 24 19.2479 24 18.6956C24 18.1434 23.5523 17.6956 23 17.6956V19.6956ZM19.1739 19.6956H23V17.6956H19.1739V19.6956Z" fill="#757575"/>
<path d="M23 6.30435C23.5523 6.30435 24 5.85664 24 5.30435C24 4.75207 23.5523 4.30435 23 4.30435V6.30435ZM19.1739 6.30435L23 6.30435V4.30435L19.1739 4.30435V6.30435Z" fill="#757575"/>
<path d="M23 13C23.5523 13 24 12.5523 24 12C24 11.4477 23.5523 11 23 11V13ZM10.5652 13L23 13V11L10.5652 11V13Z" fill="#757575"/>
</svg>
