<svg width="25" height="24" viewBox="0 0 25 24" fill="none" xmlns="http://www.w3.org/2000/svg">
<path d="M12.4868 13C13.0391 13 13.4868 12.5523 13.4868 12C13.4868 11.4477 13.0391 11 12.4868 11C11.9345 11 11.4868 11.4477 11.4868 12C11.4868 12.5523 11.9345 13 12.4868 13Z" stroke="#25282B" stroke-width="2" stroke-linecap="round" stroke-linejoin="round"/>
<path d="M19.4868 13C20.0391 13 20.4868 12.5523 20.4868 12C20.4868 11.4477 20.0391 11 19.4868 11C18.9345 11 18.4868 11.4477 18.4868 12C18.4868 12.5523 18.9345 13 19.4868 13Z" stroke="#25282B" stroke-width="2" stroke-linecap="round" stroke-linejoin="round"/>
<path d="M5.48682 13C6.0391 13 6.48682 12.5523 6.48682 12C6.48682 11.4477 6.0391 11 5.48682 11C4.93453 11 4.48682 11.4477 4.48682 12C4.48682 12.5523 4.93453 13 5.48682 13Z" stroke="#25282B" stroke-width="2" stroke-linecap="round" stroke-linejoin="round"/>
</svg>
